<?xml version="1.0" encoding="UTF-8"?>
<svg id="Layer_1" data-name="Layer 1" xmlns="http://www.w3.org/2000/svg" viewBox="0 0 447.32 447.31">
  <defs>
    <style>
      .cls-1 {
        fill: #7c0000;
        stroke-width: 0px;
      }
    </style>
  </defs>
  <path class="cls-1" d="M223.66,0C100.14,0,0,100.14,0,223.65c0,43.14,12.24,83.42,33.41,117.58L275.03,6.01c-16.51-3.89-33.69-6.01-51.38-6.01Z"/>
  <path class="cls-1" d="M380,63.79L121.42,422.56c7.18,3.7,14.56,7.02,22.18,9.94L396.47,81.67c-5.15-6.25-10.68-12.22-16.47-17.88Z"/>
  <path class="cls-1" d="M303.67,14.8L50.82,365.6c4.26,5.18,8.77,10.15,13.46,14.92L322.11,22.82c-6-2.95-12.16-5.61-18.45-8.02Z"/>
  <path class="cls-1" d="M172.23,441.3c16.52,3.89,33.72,6.01,51.43,6.01,123.52,0,223.66-100.13,223.66-223.66,0-43.15-12.26-83.45-33.44-117.62l-241.65,335.26Z"/>
</svg>